<svg width="54" height="51" viewBox="0 0 54 51" fill="none" xmlns="http://www.w3.org/2000/svg">
<path d="M53.2532 25.5C53.2532 39.2827 41.4691 50.5 26.8766 50.5C12.2841 50.5 0.5 39.2827 0.5 25.5C0.5 11.7173 12.2841 0.5 26.8766 0.5C41.4691 0.5 53.2532 11.7173 53.2532 25.5Z" stroke="#165087"/>
<path d="M28.9858 23.06C31.1938 23.42 32.8858 24.248 34.0618 25.544C35.2378 26.816 35.8258 28.4 35.8258 30.296C35.8258 31.76 35.4418 33.116 34.6738 34.364C33.9058 35.588 32.7298 36.572 31.1458 37.316C29.5858 38.06 27.6658 38.432 25.3858 38.432C23.6098 38.432 21.8578 38.204 20.1298 37.748C18.4258 37.268 16.9738 36.596 15.7738 35.732L18.0418 31.268C19.0018 31.988 20.1058 32.552 21.3538 32.96C22.6258 33.344 23.9218 33.536 25.2418 33.536C26.7058 33.536 27.8578 33.26 28.6978 32.708C29.5378 32.132 29.9578 31.328 29.9578 30.296C29.9578 28.232 28.3858 27.2 25.2418 27.2H22.5778V23.348L27.7618 17.48H17.0338V12.8H34.6738V16.58L28.9858 23.06Z" fill="#165087"/>
</svg>
