<svg width="54" height="51" viewBox="0 0 54 51" fill="none" xmlns="http://www.w3.org/2000/svg">
<path d="M53.2532 25.5C53.2532 39.2827 41.4691 50.5 26.8766 50.5C12.2841 50.5 0.5 39.2827 0.5 25.5C0.5 11.7173 12.2841 0.5 26.8766 0.5C41.4691 0.5 53.2532 11.7173 53.2532 25.5Z" stroke="#165087"/>
<path d="M36.0418 33.248V38H16.9978V34.22L26.7178 25.04C27.7498 24.056 28.4458 23.216 28.8058 22.52C29.1658 21.8 29.3458 21.092 29.3458 20.396C29.3458 19.388 28.9978 18.62 28.3018 18.092C27.6298 17.54 26.6338 17.264 25.3138 17.264C24.2098 17.264 23.2138 17.48 22.3258 17.912C21.4378 18.32 20.6938 18.944 20.0938 19.784L15.8458 17.048C16.8298 15.584 18.1858 14.444 19.9138 13.628C21.6418 12.788 23.6218 12.368 25.8538 12.368C27.7258 12.368 29.3578 12.68 30.7498 13.304C32.1658 13.904 33.2578 14.768 34.0258 15.896C34.8178 17 35.2138 18.308 35.2138 19.82C35.2138 21.188 34.9258 22.472 34.3498 23.672C33.7738 24.872 32.6578 26.24 31.0018 27.776L25.2058 33.248H36.0418Z" fill="#165087"/>
</svg>
