<svg width="75" height="75" viewBox="0 0 75 75" fill="none" xmlns="http://www.w3.org/2000/svg">
<g clip-path="url(#clip0)">
<path d="M49.6561 39.0775C47.9369 41.1567 45.9919 43.2933 43.8927 45.3925C41.7935 47.4917 39.6571 49.4375 37.5783 51.156C37.7185 51.161 37.8585 51.1667 38 51.1667C41.0931 51.1632 44.0586 49.9329 46.2457 47.7457C48.4329 45.5586 49.6632 42.5931 49.6667 39.5C49.6667 39.3583 49.6611 39.2179 49.6561 39.0775Z" fill="#00AD00"/>
<path d="M54.5 23.001C52.8838 21.3842 49.9238 21.9575 45.4508 24.7533C43.8037 25.7976 42.215 26.9312 40.6919 28.1492C38.755 27.6882 36.7323 27.7309 34.8167 28.2732C32.901 28.8155 31.156 29.8393 29.7482 31.2472C28.3404 32.655 27.3165 34.3999 26.7742 36.3156C26.2319 38.2313 26.1892 40.254 26.6502 42.1908C25.4322 43.7139 24.2985 45.3026 23.2544 46.9498C20.4583 51.4229 19.8846 54.3829 21.5 56C21.8084 56.3005 22.1751 56.5348 22.5774 56.6884C22.9797 56.842 23.4091 56.9118 23.8394 56.8933C25.5004 56.8933 27.7227 56.0144 30.5492 54.2475C34.2144 51.9558 38.5344 48.3933 42.7133 44.215C46.8923 40.0367 50.455 35.716 52.7458 32.0508C55.5417 27.5771 56.1154 24.6171 54.5 23.001ZM49.425 31.055C47.2556 34.3431 44.0356 38.18 40.3577 41.8569C36.6798 45.5337 32.844 48.7548 29.5558 50.9242C26.3202 53.0587 24.5767 53.5427 23.9356 53.5652C23.9581 52.9246 24.4421 51.1806 26.5767 47.945C27.0498 47.2279 27.5767 46.4835 28.1425 45.7217C28.7567 46.6922 29.5096 47.5676 30.3773 48.3202C33.4999 45.9987 36.4422 43.4442 39.1792 40.6785C41.9448 37.9417 44.4993 34.9996 46.8208 31.8773C46.0682 31.0092 45.1925 30.256 44.2217 29.6417C44.9836 29.0748 45.7279 28.549 46.445 28.0758C49.6806 25.9412 51.4242 25.4573 52.0652 25.4348C52.0427 26.0756 51.5588 27.8194 49.4242 31.055H49.425Z" fill="#00AD00"/>
<path d="M23 23.6667C24.1047 23.6679 25.1637 24.1073 25.9449 24.8885C26.726 25.6696 27.1654 26.7286 27.1667 27.8333C27.1667 28.0543 27.2545 28.2663 27.4107 28.4226C27.567 28.5789 27.779 28.6667 28 28.6667C28.221 28.6667 28.433 28.5789 28.5892 28.4226C28.7455 28.2663 28.8333 28.0543 28.8333 27.8333C28.8346 26.7286 29.274 25.6696 30.0551 24.8885C30.8362 24.1073 31.8953 23.6679 33 23.6667C33.221 23.6667 33.433 23.5789 33.5892 23.4226C33.7455 23.2663 33.8333 23.0543 33.8333 22.8333C33.8333 22.6123 33.7455 22.4004 33.5892 22.2441C33.433 22.0878 33.221 22 33 22C31.8953 21.9987 30.8362 21.5593 30.0551 20.7782C29.274 19.9971 28.8346 18.938 28.8333 17.8333C28.8333 17.6123 28.7455 17.4004 28.5892 17.2441C28.433 17.0878 28.221 17 28 17C27.779 17 27.567 17.0878 27.4107 17.2441C27.2545 17.4004 27.1667 17.6123 27.1667 17.8333C27.1654 18.938 26.726 19.9971 25.9449 20.7782C25.1637 21.5593 24.1047 21.9987 23 22C22.779 22 22.567 22.0878 22.4107 22.2441C22.2545 22.4004 22.1667 22.6123 22.1667 22.8333C22.1667 23.0543 22.2545 23.2663 22.4107 23.4226C22.567 23.5789 22.779 23.6667 23 23.6667Z" fill="#00AD00"/>
<path d="M49.6667 53.6667C50.5871 53.6667 51.3333 52.9205 51.3333 52C51.3333 51.0795 50.5871 50.3333 49.6667 50.3333C48.7462 50.3333 48 51.0795 48 52C48 52.9205 48.7462 53.6667 49.6667 53.6667Z" fill="#00AD00"/>
<path d="M21.3333 40.3333C22.2538 40.3333 23 39.5871 23 38.6667C23 37.7462 22.2538 37 21.3333 37C20.4128 37 19.6667 37.7462 19.6667 38.6667C19.6667 39.5871 20.4128 40.3333 21.3333 40.3333Z" fill="#00AD00"/>
<path d="M54.6667 38.6667C55.5871 38.6667 56.3333 37.9205 56.3333 37C56.3333 36.0795 55.5871 35.3333 54.6667 35.3333C53.7462 35.3333 53 36.0795 53 37C53 37.9205 53.7462 38.6667 54.6667 38.6667Z" fill="#00AD00"/>
</g>
<circle cx="37.5" cy="37.5" r="37.5" fill="#00AD00" fill-opacity="0.15"/>
<defs>
<clipPath id="clip0">
<rect width="40" height="40" fill="white" transform="translate(18 17)"/>
</clipPath>
</defs>
</svg>
