<svg width="75" height="75" viewBox="0 0 75 75" fill="none" xmlns="http://www.w3.org/2000/svg">
<g clip-path="url(#clip0)">
<path d="M56.18 17.0054C48.3717 16.8654 39.4667 20.947 33.83 27.2787C28.4433 27.3804 23.1983 29.5887 19.3367 33.4504C19.1117 33.672 19.0317 34.0037 19.13 34.3037C19.23 34.6054 19.49 34.8237 19.8033 34.8687L26.2267 35.7887L25.4333 36.677C25.1383 37.007 25.1533 37.5087 25.4667 37.822L36.1783 48.5337C36.34 48.6954 36.5533 48.777 36.7683 48.777C36.9667 48.777 37.165 48.707 37.3233 48.5654L38.2117 47.772L39.1317 54.1954C39.1767 54.5087 39.4233 54.7387 39.7217 54.8387C39.7983 54.8637 39.8783 54.8754 39.96 54.8754C40.1967 54.8754 40.4383 54.772 40.605 54.607C44.4133 50.7987 46.6217 45.5537 46.7233 40.167C53.0617 34.5187 57.1767 25.617 56.995 17.8187C56.9833 17.3754 56.625 17.017 56.18 17.0054ZM48.5 31.392C47.6883 32.2037 46.6217 32.6104 45.5533 32.6104C44.485 32.6104 43.4183 32.2037 42.6067 31.392C40.9833 29.767 40.9833 27.1237 42.6067 25.4987C44.2317 23.8737 46.875 23.8737 48.5 25.4987C50.125 27.1237 50.125 29.7687 48.5 31.392Z" fill="#0046FA"/>
<path d="M21.5398 45.175C19.7565 46.9583 17.3082 55.015 17.0348 55.9267C16.9465 56.22 17.0282 56.5383 17.2432 56.755C17.4032 56.915 17.6148 57 17.8332 57C17.9132 57 17.9932 56.9883 18.0732 56.965C18.9848 56.6917 27.0415 54.2433 28.8248 52.46C30.8332 50.4517 30.8332 47.1833 28.8248 45.175C26.8148 43.1667 23.5482 43.1683 21.5398 45.175Z" fill="#0046FA"/>
</g>
<circle cx="37.5" cy="37.5" r="37.5" fill="#043BF2" fill-opacity="0.15"/>
<defs>
<clipPath id="clip0">
<rect width="40" height="40" fill="white" transform="translate(17 17)"/>
</clipPath>
</defs>
</svg>
