<svg width="184" height="50" viewBox="0 0 184 50" fill="none" xmlns="http://www.w3.org/2000/svg">
<rect width="50" height="50" rx="10" fill="white"/>
<g clip-path="url(#clip0)">
<path d="M14.7 30.63L12 39L20.37 36.3L14.7 30.63Z" fill="#01BD01"/>
<path d="M29.7694 15.5168L16.5963 28.6899L22.3238 34.4174L35.4969 21.2443L29.7694 15.5168Z" fill="#01BD01"/>
<path d="M38.595 16.185L34.815 12.405C34.275 11.865 33.465 11.865 32.925 12.405L31.71 13.62L37.38 19.29L38.595 18.075C39.135 17.535 39.135 16.725 38.595 16.185Z" fill="#01BD01"/>
</g>
<path d="M73.38 32.32C71.9 32.32 70.5667 32.0133 69.38 31.4C68.1933 30.7733 67.26 29.9067 66.58 28.8C65.9133 27.68 65.58 26.4133 65.58 25C65.58 23.5867 65.9133 22.3267 66.58 21.22C67.26 20.1 68.1933 19.2333 69.38 18.62C70.5667 17.9933 71.9 17.68 73.38 17.68C74.74 17.68 75.9533 17.92 77.02 18.4C78.0867 18.88 78.9667 19.5733 79.66 20.48L76.68 23.14C75.8133 22.0467 74.7933 21.5 73.62 21.5C72.6333 21.5 71.84 21.82 71.24 22.46C70.64 23.0867 70.34 23.9333 70.34 25C70.34 26.0667 70.64 26.92 71.24 27.56C71.84 28.1867 72.6333 28.5 73.62 28.5C74.7933 28.5 75.8133 27.9533 76.68 26.86L79.66 29.52C78.9667 30.4267 78.0867 31.12 77.02 31.6C75.9533 32.08 74.74 32.32 73.38 32.32ZM95.9828 18L90.0628 32H85.4228L79.5028 18H84.5828L87.9228 26.18L91.3428 18H95.9828ZM115.242 32L115.202 25.62L112.162 30.74H110.082L107.042 25.84V32H102.742V18H106.622L111.182 25.46L115.622 18H119.502L119.542 32H115.242ZM131.364 29.56H126.044L125.104 32H120.304L126.424 18H131.064L137.184 32H132.304L131.364 29.56ZM130.064 26.16L128.704 22.64L127.344 26.16H130.064ZM143.637 27.36L142.577 28.54V32H137.937V18H142.577V23.08L147.177 18H152.317L146.717 24.16L152.597 32H147.137L143.637 27.36ZM164.87 28.44V32H153.23V18H164.61V21.56H157.87V23.2H163.79V26.6H157.87V28.44H164.87ZM172.687 28.48H171.407V32H166.687V18H173.427C174.72 18 175.847 18.2133 176.807 18.64C177.767 19.0667 178.507 19.68 179.027 20.48C179.547 21.28 179.807 22.2133 179.807 23.28C179.807 24.28 179.58 25.1533 179.127 25.9C178.674 26.6467 178.02 27.24 177.167 27.68L180.107 32H175.067L172.687 28.48ZM175.047 23.28C175.047 22.76 174.887 22.36 174.567 22.08C174.247 21.7867 173.767 21.64 173.127 21.64H171.407V24.92H173.127C173.767 24.92 174.247 24.78 174.567 24.5C174.887 24.2067 175.047 23.8 175.047 23.28Z" fill="white"/>
<defs>
<clipPath id="clip0">
<rect width="27" height="27" fill="white" transform="translate(12 12)"/>
</clipPath>
</defs>
</svg>
