<svg width="100" height="100" viewBox="0 0 100 100" fill="none" xmlns="http://www.w3.org/2000/svg">
<path d="M80.8616 29.0527C81.9401 29.0527 82.8147 28.1783 82.8147 27.0996V5.85938C82.8147 2.62852 80.1862 0 76.9553 0H5.86157C2.63071 0 0.00219727 2.62852 0.00219727 5.85938V94.1406C0.00219727 97.3715 2.63071 100 5.86157 100H76.9553C80.1862 100 82.8147 97.3715 82.8147 94.1406V79.7516C82.8147 78.6729 81.9401 77.7984 80.8616 77.7984C79.7831 77.7984 78.9084 78.6729 78.9084 79.7516V94.1406C78.9084 95.2176 78.0323 96.0938 76.9553 96.0938H5.86157C4.78462 96.0938 3.90845 95.2176 3.90845 94.1406V5.85938C3.90845 4.78242 4.78462 3.90625 5.86157 3.90625H76.9553C78.0323 3.90625 78.9084 4.78242 78.9084 5.85938V27.0996C78.9084 28.1783 79.7831 29.0527 80.8616 29.0527Z" fill="#01BD01"/>
<path d="M41.4077 10.5469C31.4997 10.5469 23.439 18.6076 23.439 28.5156C23.439 33.6557 25.6089 38.2978 29.08 41.576C29.145 41.6455 29.2142 41.7113 29.2897 41.7713C32.4872 44.6969 36.7425 46.4842 41.4075 46.4842C46.0726 46.4842 50.3278 44.6967 53.5253 41.7713C53.6009 41.7113 53.67 41.6453 53.7351 41.576C57.2065 38.2978 59.3765 33.6557 59.3765 28.5156C59.3765 18.6076 51.3157 10.5469 41.4077 10.5469ZM41.4077 42.5781C38.2185 42.5781 35.2751 41.5094 32.9134 39.7133C34.63 36.6693 37.8333 34.7656 41.4077 34.7656C44.9821 34.7656 48.1854 36.6693 49.902 39.7133C47.5401 41.5094 44.597 42.5781 41.4077 42.5781ZM38.2827 27.7344V26.4648C38.2827 24.7418 39.6847 23.3398 41.4077 23.3398C43.1308 23.3398 44.5327 24.7418 44.5327 26.4648V27.7344C44.5327 29.4574 43.1308 30.8594 41.4077 30.8594C39.6847 30.8594 38.2827 29.4574 38.2827 27.7344ZM52.7241 36.8521C51.2837 34.7158 49.2874 33.0543 46.9696 32.0285C47.8895 30.8396 48.439 29.3504 48.439 27.7344V26.4648C48.439 22.5877 45.2849 19.4336 41.4077 19.4336C37.5306 19.4336 34.3765 22.5877 34.3765 26.4648V27.7344C34.3765 29.3504 34.9259 30.8396 35.8458 32.0285C33.528 33.0543 31.5317 34.7158 30.0913 36.8521C28.3669 34.5176 27.3452 31.6342 27.3452 28.5156C27.3452 20.7615 33.6536 14.4531 41.4077 14.4531C49.1618 14.4531 55.4702 20.7615 55.4702 28.5156C55.4702 31.6342 54.4485 34.5176 52.7241 36.8521Z" fill="#01BD01"/>
<path d="M51.9546 85.5469H41.4077C40.3292 85.5469 39.4546 86.4213 39.4546 87.5C39.4546 88.5787 40.3292 89.4531 41.4077 89.4531H51.9546C53.0331 89.4531 53.9077 88.5787 53.9077 87.5C53.9077 86.4213 53.0331 85.5469 51.9546 85.5469Z" fill="#01BD01"/>
<path d="M51.9546 74.6094H24.2202C23.1417 74.6094 22.2671 75.4838 22.2671 76.5625C22.2671 77.6412 23.1417 78.5156 24.2202 78.5156H51.9546C53.0331 78.5156 53.9077 77.6412 53.9077 76.5625C53.9077 75.4838 53.0331 74.6094 51.9546 74.6094Z" fill="#01BD01"/>
<path d="M51.9546 63.6719H24.2202C23.1417 63.6719 22.2671 64.5463 22.2671 65.625C22.2671 66.7037 23.1417 67.5781 24.2202 67.5781H51.9546C53.0331 67.5781 53.9077 66.7037 53.9077 65.625C53.9077 64.5463 53.0331 63.6719 51.9546 63.6719Z" fill="#01BD01"/>
<path d="M17.259 53.3066C16.8959 52.9434 16.392 52.7344 15.8763 52.7344C15.3625 52.7344 14.8586 52.9434 14.4955 53.3066C14.1322 53.6699 13.9232 54.1738 13.9232 54.6875C13.9232 55.2012 14.132 55.7051 14.4955 56.0684C14.8607 56.4316 15.3625 56.6406 15.8763 56.6406C16.392 56.6406 16.8939 56.4316 17.259 56.0684C17.6222 55.7051 17.8314 55.2012 17.8314 54.6875C17.8314 54.1738 17.6224 53.6699 17.259 53.3066Z" fill="#01BD01"/>
<path d="M17.259 64.2441C16.8939 63.8809 16.392 63.6719 15.8763 63.6719C15.3625 63.6719 14.8607 63.8809 14.4955 64.2441C14.1322 64.6074 13.9232 65.1113 13.9232 65.625C13.9232 66.1387 14.132 66.6426 14.4955 67.0059C14.8607 67.3691 15.3625 67.5781 15.8763 67.5781C16.392 67.5781 16.8939 67.3691 17.259 67.0059C17.6222 66.6426 17.8314 66.1387 17.8314 65.625C17.8314 65.1113 17.6224 64.6074 17.259 64.2441Z" fill="#01BD01"/>
<path d="M17.259 75.1816C16.8939 74.8184 16.392 74.6094 15.8763 74.6094C15.3625 74.6094 14.8607 74.8184 14.4955 75.1816C14.1322 75.5449 13.9232 76.0488 13.9232 76.5625C13.9232 77.0762 14.132 77.5801 14.4955 77.9434C14.8586 78.3066 15.3625 78.5156 15.8763 78.5156C16.392 78.5156 16.8959 78.3066 17.259 77.9434C17.6222 77.5801 17.8314 77.0762 17.8314 76.5625C17.8314 76.0488 17.6224 75.5449 17.259 75.1816Z" fill="#01BD01"/>
<path d="M51.9546 52.7344H24.2202C23.1417 52.7344 22.2671 53.6088 22.2671 54.6875C22.2671 55.7662 23.1417 56.6406 24.2202 56.6406H51.9546C53.0331 56.6406 53.9077 55.7662 53.9077 54.6875C53.9077 53.6088 53.0331 52.7344 51.9546 52.7344Z" fill="#01BD01"/>
<path d="M95.8989 25.4532C94.0014 24.3576 91.7909 24.0666 89.6741 24.6336C87.5577 25.2008 85.7885 26.5582 84.6932 28.4557L60.1147 71.0266C59.9801 71.26 59.895 71.5188 59.8651 71.7866L58.135 87.2834C58.0491 88.0545 58.4276 88.8036 59.0994 89.1916C59.4028 89.3666 59.7397 89.4534 60.0758 89.4534C60.4844 89.4534 60.8914 89.3254 61.2342 89.0729L73.7897 79.826C74.0067 79.6662 74.1883 79.4633 74.3229 79.2299L98.9012 36.659C101.163 32.7418 99.8161 27.7149 95.8989 25.4532ZM62.5123 83.2801L63.4158 75.1879L69.0686 78.4516L62.5123 83.2801ZM71.9166 75.5852L64.4742 71.2883L84.1979 37.1262L91.6403 41.4231L71.9166 75.5852ZM95.5184 34.7057L93.5932 38.0403L86.1508 33.7434L88.076 30.4088C88.6498 29.4149 89.5764 28.7039 90.685 28.4069C91.794 28.1096 92.9518 28.2623 93.9455 28.8362C94.9395 29.41 95.6504 30.3365 95.9475 31.4451C96.2446 32.5537 96.0922 33.7117 95.5184 34.7057Z" fill="#01BD01"/>
</svg>
