<svg width="75" height="75" viewBox="0 0 75 75" fill="none" xmlns="http://www.w3.org/2000/svg">
<path d="M20.7472 46.9609C22.5541 50.0907 27.7419 49.5383 31.2634 48.6567C32.2514 52.1457 34.3718 57 38 57C41.6282 57 43.7486 52.1458 44.7367 48.6567C48.2504 49.5363 53.4503 50.0833 55.2528 46.9609C57.0612 43.8288 53.9726 39.5978 51.4578 37C53.9767 34.3979 57.0601 30.1692 55.2528 27.0391C53.4461 23.9093 48.2439 24.4653 44.7367 25.3433C43.7487 21.8544 41.6282 17 38 17C34.3718 17 32.2514 21.8542 31.2634 25.3433C27.7573 24.4656 22.5543 23.9089 20.7472 27.0391C18.9389 30.1712 22.0274 34.402 24.5423 37C22.0234 39.602 18.94 43.8307 20.7472 46.9609ZM22.777 45.7891C21.6738 43.8782 24.6859 40.2208 26.2327 38.6224C27.3733 39.6441 28.64 40.6491 30.0054 41.6148C30.1585 43.2796 30.3943 44.8798 30.7074 46.3806C28.5563 46.9191 23.8805 47.7006 22.777 45.7891ZM35.0703 31.9256C36.0457 31.3625 37.0254 30.8409 38 30.3634C38.9746 30.8409 39.9544 31.3625 40.9297 31.9256C41.9052 32.4888 42.8469 33.0766 43.7478 33.6819C43.8214 34.7652 43.8594 35.8745 43.8594 37C43.8594 38.1255 43.8214 39.2348 43.7478 40.3181C42.8469 40.9234 41.9052 41.5112 40.9297 42.0744C39.9544 42.6375 38.9746 43.1591 38 43.6366C37.0254 43.1591 36.0457 42.6375 35.0703 42.0744C34.0949 41.5112 33.1532 40.9234 32.2522 40.3181C32.1787 39.2348 32.1407 38.1255 32.1407 37C32.1407 35.8745 32.1787 34.7652 32.2522 33.6819C33.1532 33.0766 34.0949 32.4888 35.0703 31.9256ZM32.5543 30.6996C32.6679 29.8674 32.8043 29.0591 32.9625 28.2801C33.7168 28.5316 34.4859 28.817 35.2647 29.1347C34.8086 29.38 34.3528 29.6335 33.8985 29.8959C33.4435 30.1586 32.9954 30.4269 32.5543 30.6996ZM40.7353 29.1347C41.5142 28.8171 42.2832 28.5316 43.0375 28.2801C43.1958 29.0591 43.3321 29.8673 43.4457 30.6996C43.0046 30.4269 42.5566 30.1586 42.1016 29.8959C41.6472 29.6335 41.1914 29.38 40.7353 29.1347ZM46.1793 35.4362C46.8427 35.951 47.4735 36.4734 48.0675 37C47.4735 37.5266 46.8427 38.049 46.1793 38.5638C46.1949 38.046 46.2032 37.5246 46.2032 37C46.2032 36.4754 46.1949 35.954 46.1793 35.4362ZM43.4457 43.3004C43.3321 44.1326 43.1957 44.9409 43.0375 45.7199C42.2832 45.4684 41.5142 45.183 40.7353 44.8653C41.1915 44.62 41.6472 44.3665 42.1016 44.1041C42.5566 43.8414 43.0046 43.5731 43.4457 43.3004ZM35.2647 44.8653C34.4859 45.1829 33.7168 45.4684 32.9625 45.7199C32.8043 44.9409 32.6679 44.1327 32.5543 43.3004C32.9954 43.5731 33.4435 43.8414 33.8985 44.1041C34.3528 44.3665 34.8086 44.62 35.2647 44.8653ZM29.8207 38.5638C29.1574 38.049 28.5266 37.5266 27.9325 37C28.5266 36.4734 29.1574 35.951 29.8207 35.4362C29.8052 35.954 29.7969 36.4754 29.7969 37C29.7969 37.5246 29.8052 38.046 29.8207 38.5638ZM38 54.6562C35.7859 54.6562 34.1182 50.1391 33.5139 48.0045C34.9716 47.5271 36.4781 46.9316 38 46.2306C39.522 46.9316 41.0285 47.5271 42.4862 48.0045C41.8838 50.1322 40.2161 54.6562 38 54.6562ZM53.2232 45.7891C52.1196 47.7005 47.4436 46.919 45.2928 46.3806C45.6058 44.8798 45.8417 43.2796 45.9947 41.6148C47.3601 40.6491 48.6268 39.6441 49.7675 38.6224C51.3123 40.2188 54.3267 43.8776 53.2232 45.7891ZM53.2232 28.2109C54.3264 30.1218 51.3143 33.7792 49.7675 35.3776C48.6268 34.3559 47.3601 33.3509 45.9947 32.3852C45.8417 30.7204 45.6058 29.1202 45.2928 27.6194C47.5319 27.0589 52.1306 26.3187 53.2232 28.2109ZM38 19.3438C40.2142 19.3438 41.8818 23.8609 42.4862 25.9955C41.0285 26.4729 39.522 27.0684 38 27.7694C36.4781 27.0684 34.9716 26.4729 33.5139 25.9955C34.1163 23.8677 35.784 19.3438 38 19.3438ZM22.777 28.2109C23.8757 26.3077 28.5 27.0669 30.7074 27.6194C30.3943 29.1202 30.1585 30.7204 30.0054 32.3852C28.64 33.3509 27.3733 34.3559 26.2327 35.3776C24.6877 33.7811 21.6734 30.1224 22.777 28.2109Z" fill="#450089"/>
<path d="M38 40.5156C39.9385 40.5156 41.5156 38.9385 41.5156 37C41.5156 35.0615 39.9385 33.4844 38 33.4844C36.0615 33.4844 34.4844 35.0615 34.4844 37C34.4844 38.9385 36.0615 40.5156 38 40.5156ZM38 35.8281C38.6462 35.8281 39.1719 36.3538 39.1719 37C39.1719 37.6462 38.6462 38.1719 38 38.1719C37.3538 38.1719 36.8281 37.6462 36.8281 37C36.8281 36.3538 37.3538 35.8281 38 35.8281Z" fill="#450089"/>
<circle cx="37.5" cy="37.5" r="37.5" fill="#450089" fill-opacity="0.15"/>
</svg>
