<svg width="100" height="100" viewBox="0 0 100 100" fill="none" xmlns="http://www.w3.org/2000/svg">
<path d="M11.9275 33.1895C11.5645 32.826 11.0605 32.6172 10.5469 32.6172C10.0332 32.6172 9.52949 32.8262 9.16602 33.1895C8.80254 33.5527 8.59375 34.0566 8.59375 34.5703C8.59375 35.084 8.80254 35.5879 9.16602 35.951C9.5293 36.3145 10.0332 36.5234 10.5469 36.5234C11.0605 36.5234 11.5645 36.3145 11.9275 35.951C12.291 35.5879 12.5 35.084 12.5 34.5703C12.5 34.0566 12.291 33.5527 11.9275 33.1895Z" fill="#165087"/>
<path d="M85.5469 0H46.0287C44.9502 0 44.0756 0.874609 44.0756 1.95312C44.0756 3.03164 44.9502 3.90625 46.0287 3.90625H85.5469C86.6238 3.90625 87.5 4.78242 87.5 5.85938V94.1406C87.5 95.2176 86.6238 96.0938 85.5469 96.0938H14.4531C13.3762 96.0938 12.5 95.2176 12.5 94.1406V41.8619C12.5 40.7834 11.6254 39.9088 10.5469 39.9088C9.46836 39.9088 8.59375 40.7834 8.59375 41.8619V94.1406C8.59375 97.3715 11.2223 100 14.4531 100H85.5469C88.7777 100 91.4062 97.3715 91.4062 94.1406V5.85938C91.4062 2.62852 88.7777 0 85.5469 0Z" fill="#165087"/>
<path d="M50.0001 7.8125C48.6712 7.8125 47.3356 7.91406 46.0306 8.11406C44.9643 8.27773 44.2325 9.27441 44.396 10.3406C44.5595 11.4068 45.5567 12.1377 46.6225 11.9752C47.7325 11.8049 48.8688 11.7188 50.0001 11.7188C62.1698 11.7188 72.0706 21.6195 72.0706 33.7893C72.0706 39.1936 70.1171 44.1492 66.8804 47.9904C65.4481 45.5275 63.4919 43.4031 61.1175 41.7553C59.7317 40.7936 58.2429 40.026 56.6843 39.4578C58.4632 37.7189 59.5704 35.2957 59.5704 32.6176V30.7133C59.5704 25.4359 55.2772 21.1428 50.0001 21.1428C44.7229 21.1428 40.4298 25.4359 40.4298 30.7133V32.6176C40.4298 35.2957 41.5368 37.7189 43.3159 39.4578C41.7575 40.026 40.2686 40.7936 38.8827 41.7553C36.497 43.4111 34.5329 45.5475 33.0989 48.0252C30.6327 45.0945 28.9089 41.4898 28.2345 37.4686C28.0561 36.4051 27.0481 35.6875 25.9852 35.8654C24.9214 36.0437 24.2036 37.0508 24.3819 38.1146C25.3862 44.1029 28.495 49.5842 33.1358 53.5484C37.8294 57.558 43.8186 59.7662 49.9999 59.7662C64.3235 59.7662 75.9767 48.1131 75.9767 33.7895C75.9767 19.4658 64.3237 7.8125 50.0001 7.8125ZM44.336 30.7131C44.336 27.5898 46.877 25.0488 50.0001 25.0488C53.1231 25.0488 55.6641 27.5898 55.6641 30.7131V32.6174C55.6641 35.7404 53.1231 38.2814 50.0001 38.2814C46.877 38.2814 44.336 35.7404 44.336 32.6174V30.7131ZM50.0001 55.8598C44.7122 55.8598 39.8235 54.0133 35.9973 50.8828C38.62 45.5602 43.9815 42.1877 50.0001 42.1877C56.0061 42.1877 61.3575 45.5463 63.986 50.8496C60.1761 53.9787 55.3036 55.8598 50.0001 55.8598Z" fill="#165087"/>
<path d="M68.0381 77.7347H40.3037C39.2252 77.7347 38.3506 78.6094 38.3506 79.6879C38.3506 80.7664 39.2252 81.641 40.3037 81.641H68.0381C69.1168 81.641 69.9912 80.7664 69.9912 79.6879C69.9912 78.6094 69.1166 77.7347 68.0381 77.7347Z" fill="#165087"/>
<path d="M33.3416 67.3691C32.9783 67.0057 32.4744 66.7969 31.9607 66.7969C31.447 66.7969 30.9431 67.0059 30.5798 67.3691C30.2166 67.7324 30.0076 68.2363 30.0076 68.75C30.0076 69.2654 30.2167 69.7676 30.5798 70.1307C30.9431 70.4941 31.447 70.7031 31.9607 70.7031C32.4744 70.7031 32.9783 70.4941 33.3416 70.1307C33.7068 69.7676 33.9138 69.2637 33.9138 68.75C33.9138 68.2363 33.7068 67.7324 33.3416 67.3691Z" fill="#165087"/>
<path d="M33.3416 78.3066C32.9783 77.9432 32.4763 77.7344 31.9607 77.7344C31.447 77.7344 30.9431 77.9434 30.5798 78.3066C30.2166 78.6699 30.0076 79.1738 30.0076 79.6875C30.0076 80.2029 30.2167 80.7051 30.5798 81.0682C30.9431 81.4316 31.447 81.6406 31.9607 81.6406C32.4744 81.6406 32.9783 81.4316 33.3416 81.0682C33.7068 80.7051 33.9138 80.2031 33.9138 79.6875C33.9138 79.1738 33.7068 78.6699 33.3416 78.3066Z" fill="#165087"/>
<path d="M68.0381 66.7972H40.3037C39.2252 66.7972 38.3506 67.6719 38.3506 68.7504C38.3506 69.8289 39.2252 70.7035 40.3037 70.7035H68.0381C69.1168 70.7035 69.9912 69.8289 69.9912 68.7504C69.9912 67.6719 69.1166 66.7972 68.0381 66.7972Z" fill="#165087"/>
<path d="M31.5676 11.2556C30.8045 10.4931 29.5682 10.4931 28.8053 11.2556L22.4447 17.6161L20.2711 15.4425C19.508 14.68 18.2717 14.68 17.5088 15.4425C16.7461 16.2054 16.7461 17.4421 17.5088 18.2048L21.0635 21.7595C21.4449 22.1407 21.9445 22.3316 22.4445 22.3316C22.9445 22.3316 23.4441 22.1407 23.8258 21.7597L31.5676 14.0179C32.3303 13.255 32.3303 12.0183 31.5676 11.2556Z" fill="#165087"/>
<path d="M24.6094 0C15.7783 0 8.59375 7.18457 8.59375 16.0156C8.59375 24.8467 15.7783 32.0312 24.6094 32.0312C33.4404 32.0312 40.625 24.8467 40.625 16.0156C40.625 7.18457 33.4404 0 24.6094 0ZM24.6094 28.125C17.9322 28.125 12.5 22.6928 12.5 16.0156C12.5 9.33848 17.9322 3.90625 24.6094 3.90625C31.2865 3.90625 36.7188 9.33848 36.7188 16.0156C36.7188 22.6928 31.2865 28.125 24.6094 28.125Z" fill="#165087"/>
</svg>
